<svg height="511pt" viewBox="-25 1 511 511.99725" width="511pt" xmlns="http://www.w3.org/2000/svg"><path d="m309.671875 166.308594c8.785156-8.785156 8.785156-23.027344 0-31.816406-8.785156-8.785157-23.03125-8.785157-31.816406 0l-182.070313 182.070312c-27.59375 27.597656-27.59375 72.5.003906 100.09375 13.796876 13.796875 31.921876 20.695312 50.042969 20.695312 18.125 0 36.25-6.898437 50.046875-20.695312l87.003906-87s.003907-.003906.003907-.003906l146.441406-146.445313c41.855469-41.855469 41.855469-109.960937 0-151.816406s-109.960937-41.851563-151.816406 0l-201.035157 201.035156c-.363281.359375-.6875.746094-1.019531 1.125l-32.960937 32.960938c-27.082032 27.082031-41.996094 63.21875-41.996094 101.746093 0 38.527344 14.914062 74.660157 41.996094 101.742188 27.082031 27.082031 63.214844 41.996094 101.742187 41.996094 38.527344 0 74.664063-14.914063 101.746094-41.996094l165.757813-165.757812c8.785156-8.785157 8.785156-23.03125 0-31.816407-8.785157-8.789062-23.03125-8.789062-31.816407 0l-165.761719 165.757813c-18.582031 18.585937-43.414062 28.816406-69.925781 28.816406s-51.34375-10.230469-69.925781-28.816406c-18.585938-18.582032-28.820312-43.417969-28.820312-69.925782 0-26.511718 10.234374-51.34375 28.820312-69.929687l165.757812-165.757813c.363282-.363281.691407-.75 1.023438-1.132812l68.230469-68.230469c24.3125-24.3125 63.875-24.3125 88.183593-.003906 24.3125 24.3125 24.3125 63.875 0 88.1875l-51.367187 51.367187c-.003906.003907-.007813.007813-.011719.011719l-182.066406 182.070313c-10.050781 10.050781-26.40625 10.050781-36.457031 0-10.054688-10.050782-10.054688-26.40625 0-36.460938zm0 0"/></svg>